<?xml version="1.0" encoding="utf-8"?>
<!-- Generator: Adobe Illustrator 24.3.0, SVG Export Plug-In . SVG Version: 6.00 Build 0)  -->
<svg version="1.1" id="Capa_1" xmlns="http://www.w3.org/2000/svg" xmlns:xlink="http://www.w3.org/1999/xlink" x="0px" y="0px"
	 viewBox="0 0 500 500" style="enable-background:new 0 0 500 500;" xml:space="preserve">
<g id="g5422">
	<path id="path5418" d="M189.6,474.3c-74.8,0-138-63.3-138-138c0-51.8,28.8-103.5,80.5-126.5L120.6,181
		c-57.5,28.8-97.8,86.3-97.8,149.5c0,92,74.8,166.8,166.8,166.8c74.8,0,138-51.8,161-120.8l-28.8-5.8
		C304.6,428.3,247.1,474.3,189.6,474.3z"/>
	<path id="path5420" d="M459.9,382.3l-46,23l-63.3-138H201.1l-11.5-80.5h115V158h-115l-11.5-74.8h5.8c23,0,40.3-17.3,40.3-40.3
		S206.9,2.7,183.9,2.7S143.6,20,143.6,43c0,11.5,5.8,17.3,11.5,23h-5.8l28.8,224.3h155.3l69,149.5l74.8-40.3L459.9,382.3z"/>
</g>
</svg>
